<svg xmlns="http://www.w3.org/2000/svg" viewBox="0 0 64 64" width="64" height="64" role="img">
  <title>T3SB Config</title>

  <!-- Background #2b2640 -->
  <rect x="0" y="0" width="64" height="64" rx="10" fill="#2b2640"/>

  <g fill="none" stroke="#c4c0e8" stroke-linecap="round" stroke-linejoin="round">

    <!-- B outer rect (outline only, no fill) -->
    <rect x="8" y="6" width="34" height="44" rx="7" stroke-width="2.2"/>

    <!-- B stem -->
    <line x1="17" y1="14" x2="17" y2="42" stroke-width="2.2"/>

    <!-- B top bowl -->
    <path d="M17,14 L27,14 Q35,14 35,22 Q35,30 27,30 L17,30" stroke-width="2.2"/>

    <!-- B bottom bowl -->
    <path d="M17,30 L28,30 Q37,30 37,38 Q37,46 28,46 L17,46" stroke-width="2.2"/>

    <!-- Gear – bottom right -->
    <circle cx="45" cy="45" r="14" fill="#2b2640" stroke="none"/>
    <circle cx="45" cy="45" r="9" stroke-width="2.2"/>
    <circle cx="45" cy="45" r="3.5" stroke-width="2.2"/>
    <g stroke-width="2" stroke-linecap="round">
      <line x1="45" y1="36" x2="45" y2="32"/>
      <line x1="45" y1="54" x2="45" y2="58"/>
      <line x1="54" y1="45" x2="58" y2="45"/>
      <line x1="36" y1="45" x2="32" y2="45"/>
      <line x1="51.36" y1="38.64" x2="54.19" y2="35.81"/>
      <line x1="38.64" y1="38.64" x2="35.81" y2="35.81"/>
      <line x1="51.36" y1="51.36" x2="54.19" y2="54.19"/>
      <line x1="38.64" y1="51.36" x2="35.81" y2="54.19"/>
    </g>

  </g>
</svg>
